Coordinates
version=1
nRows=8
nColumns=27
inDegrees=yes

Units are S.I. units (second, meters, Newtons, ...)
If the header above contains a line with 'inDegrees', this indicates whether rotational values are in degrees (yes) or radians (no).

endheader
time	pelvis_rotation	pelvis_tilt	pelvis_list	pelvis_tx	pelvis_ty	pelvis_tz	hip_flexion_r	hip_adduction_r	hip_rotation_r	knee_angle_r	knee_rotation_r	knee_adduction_r	knee_angle_r_beta	ankle_angle_r	subtalar_angle_r	mtp_angle_r	hip_flexion_l	hip_adduction_l	hip_rotation_l	knee_angle_l	knee_rotation_l	knee_adduction_l	knee_angle_l_beta	ankle_angle_l	subtalar_angle_l	mtp_angle_l
     13.01000000	      3.43651709	    -43.81968749	      8.07210068	     -0.14148295	      0.79881095	     -1.19917381	     93.25057297	    -10.95803071	    -11.72812868	     60.83185275	     -7.49315763	      8.78996010	      1.06171612	     11.20201911	      0.06214726	      0.00000000	     89.23455163	     -6.76803373	    -20.42326705	     55.70281649	     -7.15390839	     -9.15953221	      0.97219755	      8.81056082	      4.34697484	      0.00000000
     13.01500000	      3.45774251	    -43.77604980	      7.76150555	     -0.14120841	      0.80016887	     -1.19957259	     92.85250595	    -11.02015042	    -12.17648528	     60.42491402	     -7.51792995	      8.79244852	      1.05461370	     11.09912589	      0.21019453	      0.00000000	     89.04818865	     -6.67439406	    -20.00059626	     55.42784935	     -7.02351733	     -9.12232405	      0.96739847	      8.74400193	      4.31304384	      0.00000000
     13.02000000	      3.57552709	    -44.29101014	      8.05695550	     -0.14240252	      0.80006681	     -1.19998520	     93.52665281	    -11.07061351	    -10.99109238	     60.53741390	     -6.71832858	      8.05340524	      1.05657719	     11.02924264	      0.36180073	      0.00000000	     89.57304869	     -6.64443523	    -19.41477963	     55.44729969	     -6.37117125	     -8.49577839	      0.96773794	      8.66931011	      4.35284261	      0.00000000
     13.02500000	      2.92205640	    -43.28668886	      7.77593795	     -0.14039640	      0.80297530	     -1.20036110	     91.88586056	    -10.69153539	    -11.77251961	     59.67380003	     -7.37215417	      8.78388914	      1.04150429	     10.82707785	      0.20052330	      0.00000000	     87.86149310	     -6.92157813	    -20.58672869	     54.68190708	     -6.88517383	     -9.15347723	      0.95437932	      8.62466371	      4.47308433	      0.00000000
     13.03000000	      3.50482238	    -44.09104034	      7.97594828	     -0.14183313	      0.80270012	     -1.20092603	     92.83200458	    -11.10736867	    -11.09171986	     59.84057884	     -6.64752980	      8.01603620	      1.04441513	     10.84010992	      0.54295261	      0.00000000	     88.89575224	     -6.51877621	    -19.36197475	     54.77201772	     -6.20022373	     -8.45032782	      0.95595205	      8.46715356	      4.34249656	      0.00000000
     13.03500000	      2.83664703	    -43.09118902	      7.74958595	     -0.13976037	      0.80559804	     -1.20129305	     91.21196251	    -10.72222407	    -11.79436827	     58.98777845	     -7.27966922	      8.75872581	      1.02953095	     10.64562684	      0.42804937	      0.00000000	     87.16673405	     -6.82197149	    -20.62399521	     54.01109890	     -6.69933126	     -9.12959969	      0.94267151	      8.45341938	      4.49735152	      0.00000000
     13.04000000	      3.18404475	    -43.23725368	      8.17035992	     -0.13976751	      0.80656585	     -1.20214790	     91.34733534	    -11.08317996	    -11.54121345	     58.87226765	     -7.14036811	      8.70999976	      1.02751491	     10.60295074	      0.61524210	      0.00000000	     87.12705005	     -6.41425528	    -20.69287406	     53.66343843	     -6.61545541	     -9.08554721	      0.93660369	      8.31634581	      4.40247168	      0.00000000
     13.04500000	      3.09694078	    -43.14218157	      8.06163803	     -0.13943845	      0.80789647	     -1.20256460	     90.97423819	    -11.05801677	    -11.62964529	     58.50057335	     -7.09731010	      8.70636427	      1.02102762	     10.49905786	      0.70538727	      0.00000000	     86.79152422	     -6.40933930	    -20.62825575	     53.33759009	     -6.49954938	     -9.07307630	      0.93091656	      8.21265180	      4.38633866	      0.00000000
